<svg width="10" height="13" viewBox="0 0 10 13" fill="none" xmlns="http://www.w3.org/2000/svg">
<path fill-rule="evenodd" clip-rule="evenodd" d="M4.53542 0.0373156C3.47399 0.238055 2.62518 1.16041 2.4679 2.28391C2.42855 2.56513 2.45079 3.0524 2.51463 3.30683C2.72644 4.15127 3.31681 4.85095 4.07527 5.15649C5.36525 5.67612 6.83008 5.02339 7.36047 3.69259C7.50692 3.3251 7.54135 3.13031 7.54177 2.66688C7.54213 2.28696 7.53588 2.22382 7.47548 1.99657C7.15369 0.785875 6.1579 -0.010321 4.97857 0.000101102C4.83645 0.00134667 4.63702 0.0180983 4.53542 0.0373156ZM3.85625 6.11481C2.05598 6.40063 0.575086 7.79191 0.126199 9.61918C0.0186859 10.0569 -0.000733658 10.229 2.07333e-05 10.7376C0.000702119 11.1983 0.00391436 11.2306 0.0693031 11.4367C0.315575 12.2125 0.844087 12.7382 1.59602 12.9552C1.74069 12.9969 1.97222 13 5 13C8.02779 13 8.25932 12.9969 8.40399 12.9552C9.15592 12.7382 9.68443 12.2125 9.93071 11.4367C9.99609 11.2306 9.99931 11.1983 9.99999 10.7376C10.0004 10.4471 9.98792 10.1787 9.96857 10.064C9.74493 8.7378 9.05422 7.61041 8.01976 6.8831C7.43652 6.47305 6.80366 6.2168 6.11631 6.1124C5.76398 6.05889 4.19796 6.06057 3.85625 6.11481Z" fill="black" fill-opacity="0.58"/>
</svg>
