<svg width="12" height="12" viewBox="0 0 12 12" fill="none" xmlns="http://www.w3.org/2000/svg">
<path fill-rule="evenodd" clip-rule="evenodd" d="M5.08115 0.0582237C4.15413 0.205708 3.29556 0.559371 2.49096 1.12514C2.11467 1.38973 1.38582 2.11994 1.12172 2.49693C0.534657 3.3349 0.180493 4.22053 0.0420755 5.19652C-0.0280563 5.69099 -0.0088726 6.45626 0.0873592 7.00446C0.443088 9.03075 1.55431 10.5539 3.29005 11.3946C3.79621 11.6398 4.16023 11.7634 4.73525 11.8855C5.10587 11.9641 5.27136 11.9816 5.78738 11.9962C6.92692 12.0285 7.76907 11.8558 8.71849 11.3951C10.4494 10.5551 11.5616 9.02968 11.924 6.9986C12.0182 6.47112 12.0263 5.44662 11.9401 4.9879C11.7149 3.79043 11.1823 2.73603 10.3747 1.88855C9.39543 0.860988 8.21627 0.245213 6.84531 0.0454944C6.39513 -0.0200649 5.53417 -0.013857 5.08115 0.0582237ZM6.50507 4.1123V6.22098L5.41722 7.3105L4.32938 8.40002L3.97782 8.0468L3.62622 7.69354L4.56494 6.75348L5.50363 5.81346V3.90854V2.00365H6.00435H6.50507V4.1123Z" fill="black" fill-opacity="0.58"/>
</svg>
