<svg width="12" height="12" viewBox="0 0 12 12" fill="none" xmlns="http://www.w3.org/2000/svg">
<path fill-rule="evenodd" clip-rule="evenodd" d="M1.74601 0.0271665C1.69306 0.0444996 1.60333 0.0911043 1.5466 0.130766C1.37387 0.251488 0.507165 1.12192 0.399861 1.28245C-0.0042035 1.88695 -0.103132 2.68762 0.108073 3.64423C0.445865 5.17402 1.62601 7.05967 3.28504 8.72044C4.89506 10.3321 6.74059 11.5013 8.25857 11.8713C8.69095 11.9767 9.0043 12.0113 9.39621 11.9969C9.78193 11.9827 9.94908 11.9523 10.2569 11.8404C10.6611 11.6933 10.8564 11.5425 11.459 10.9119C11.9699 10.3772 12.0003 10.3272 12 10.0222C11.9998 9.83872 11.9916 9.79582 11.9372 9.69386C11.8922 9.60966 11.5715 9.27486 10.7996 8.50639C9.59513 7.30726 9.64669 7.34742 9.31411 7.34946C9.0481 7.35108 8.95171 7.40978 8.52822 7.82819C8.33468 8.01942 8.12354 8.20908 8.05903 8.24965C7.79732 8.41428 7.42792 8.46185 7.1287 8.36944C7.04652 8.34406 6.84747 8.24789 6.68635 8.15574C5.69193 7.58694 4.83327 6.79484 4.1712 5.83554C3.94669 5.51027 3.68917 5.04917 3.63616 4.87758C3.54633 4.58685 3.58769 4.23499 3.74332 3.96586C3.779 3.90413 3.97496 3.68429 4.17877 3.47737C4.60803 3.04151 4.65106 2.97058 4.65495 2.6926C4.6596 2.3612 4.69992 2.41304 3.49918 1.20737C2.70918 0.414148 2.39804 0.11667 2.31147 0.0718245C2.17006 -0.00142495 1.8988 -0.0228392 1.74601 0.0271665Z" fill="black" fill-opacity="0.58"/>
</svg>
